<svg xmlns="http://www.w3.org/2000/svg" viewBox="0 0 143.75 43.75" data-asc="1" width="143.75" height="43.75"><defs/><g fill="#000000"><g transform="translate(0, 0)"><path d="M0 43.75L0 0L31.25 0L31.25 6.25L37.50 6.25L37.50 12.50L43.75 12.50L43.75 31.25L37.50 31.25L37.50 37.50L31.25 37.50L31.25 43.75L0 43.75M12.50 37.50L25 37.50L25 31.25L31.25 31.25L31.25 12.50L25 12.50L25 6.25L12.50 6.25L12.50 37.50ZM50 43.75L50 0L62.50 0L62.50 18.75L68.75 18.75L68.75 12.50L75 12.50L75 6.25L81.25 6.25L81.25 0L93.75 0L93.75 6.25L87.50 6.25L87.50 12.50L81.25 12.50L81.25 18.75L75 18.75L75 25L81.25 25L81.25 31.25L87.50 31.25L87.50 37.50L93.75 37.50L93.75 43.75L75 43.75L75 37.50L68.75 37.50L68.75 31.25L62.50 31.25L62.50 43.75L50 43.75ZM100 43.75L100 0L137.50 0L137.50 6.25L143.75 6.25L143.75 18.75L137.50 18.75L137.50 25L143.75 25L143.75 37.50L137.50 37.50L137.50 43.75L100 43.75M112.50 18.75L131.25 18.75L131.25 6.25L112.50 6.25L112.50 18.75M112.50 37.50L131.25 37.50L131.25 25L112.50 25L112.50 37.50Z"/></g></g></svg>